<svg data-name="Layer 1" xmlns="http://www.w3.org/2000/svg" viewBox="0 0 500.98 61.3"><path d="M11.89 7.3H0V.96h32.43V7.3H20.54v37.91h-8.65zm43.08 37.91V24.93c0-4.57-1.39-6.19-4.4-6.19s-5.48 2.87-6 5.82v20.65h-8.44V.96l8.49-1v17.52a11.63 11.63 0 0 1 9-4.87c7.1 0 9.8 4.72 9.8 11.07v21.53zm27.64.74c-8.34 0-14-5.68-14-16.81 0-10.48 6.1-16.53 13.44-16.53 6.97 0 11.64 4.6 11.64 13.28a22.74 22.74 0 0 1-.43 4.32H76.89c0 6.12 2.17 10.1 8.42 10.1a10.31 10.31 0 0 0 6.8-2.8l2.08 4a15.71 15.71 0 0 1-11.58 4.44zm-.39-28.25c-2.7 0-4.48 2.29-5.25 7.9h9.58c.23-5.17-1.01-7.9-4.33-7.9zm45.4 28.18c-11.12 0-19.23-7.89-19.23-22.79S117.04.37 128.31.37a23.59 23.59 0 0 1 13 3.39v7a19.85 19.85 0 0 0-11.3-3.55c-8.18 0-12.51 5.61-12.51 16.08 0 10.25 3.71 16.08 11.28 16.08a10 10 0 0 0 5.71-1.33v-9.42h-5.64v-5.9h14V41.9a29.46 29.46 0 0 1-15.23 3.98zM158.5 25.6v19.61h-8.49V13.65l7.87-.89.31 5.17a10.11 10.11 0 0 1 9.34-5.32v7.75c-4.84-1.25-8.72 1.03-9.03 5.24zm33.58 20.21c-3.24 0-5.32-1.18-6-4.06-3.24 3.1-5.79 4.2-9.26 4.2-4.25 0-7.42-3.09-7.42-7.74 0-7.45 7.26-11.73 16.45-12.61v-3.1c0-2.66-1.47-4.06-4.71-4.06-2.7 0-7.1 1.48-9.88 3.17v-6.12a27.93 27.93 0 0 1 11.5-3c6.18 0 11.35 2.14 11.35 9.15v18.71c0 1.18.46 1.77 1.39 1.77a2.68 2.68 0 0 0 1.24-.37v3a9.69 9.69 0 0 1-4.66 1.06zm-6.25-15.71c-5.79.66-9.19 3.39-9.19 6.93 0 2.21 1 3.84 3.24 3.84 1.7 0 3.56-1 5.95-3.4zm32.43 15.85a10.27 10.27 0 0 1-8-3.83V59.6h-8.57V13.65l7.88-.89.23 4.21a10.18 10.18 0 0 1 8.42-4.36c7.1 0 12 5.76 12 16.67s-4.86 16.67-11.96 16.67zm-2.17-27.66c-2.93 0-4.78 2-5.86 4.13v13.72c1.08 2.14 2.93 4.13 5.86 4.13 3.63 0 5.72-3.17 5.72-11s-2.12-10.98-5.72-10.98zm38.3 26.92V24.93c0-4.57-1.39-6.19-4.4-6.19s-5.49 2.87-6 5.82v20.65h-8.49V.96l8.49-1v17.52a11.63 11.63 0 0 1 9-4.87c7.1 0 9.8 4.72 9.8 11.07v21.53zm30.72 7.24c-3.47 0-5.48 1.4-7.64 3.17l-3.24-2.81a25.16 25.16 0 0 1 7.46-7.52c-8.19-2.36-13.67-9.88-13.67-22.2 0-14.83 7.95-22.94 19.15-22.94s19.15 8.11 19.15 22.94c0 13.79-6.8 21.61-16.76 22.86a10.39 10.39 0 0 0-5 2.07c10.74-1.48 15.14 6.42 21.55 6.42 2.93 0 4.4-1.77 5.09-4.87h4.33c.07 5-2.78 11.73-10.35 11.73-8.95 0-12.81-8.85-20.07-8.85zm12.13-29.36c0-10.92-3.4-16.45-10-16.45s-10 5.53-10 16.45 3.4 16.45 10 16.45 10-5.54 10-16.45z"/><path class="cls-1" d="M312.06.96h8.63v37.91h15.52v6.34h-24.15zm57.63 44.92c-11.11 0-19.22-7.89-19.22-22.79S359.12.37 370.39.37a23.62 23.62 0 0 1 13 3.39v7a19.9 19.9 0 0 0-11.34-3.55c-8.19 0-12.51 5.61-12.51 16.08 0 10.25 3.71 16.08 11.27 16.08a10 10 0 0 0 5.72-1.33v-9.42h-5.64v-5.9h14V41.9a29.43 29.43 0 0 1-15.2 3.98zm47.6-.07c-3.55 0-6-1.4-6.41-4.87a11.26 11.26 0 0 1-9.26 5c-7 0-9.66-4.72-9.66-11.06V13.35h8.5v20.29c0 4.57 1.31 6.19 4.32 6.19 3.24 0 5.48-2.87 6-5.83V13.35h8.5v27c0 1.18.46 1.77 1.31 1.77a2.46 2.46 0 0 0 1.31-.37v3a9.64 9.64 0 0 1-4.61 1.06zm13.82-37.1a4.35 4.35 0 0 1-4.4-4.21 4.44 4.44 0 0 1 8.88 0 4.38 4.38 0 0 1-4.48 4.21zm-4.17 36.5V13.5l8.49-1v32.71zm40.3.6c-3.47 0-5.56-1.26-6.18-4.06a10.12 10.12 0 0 1-8.41 4.2c-7 0-12-5.75-12-16.67s5-16.67 12-16.67a10.2 10.2 0 0 1 8 3.84V.96l8.49-1v40.39c0 1.18.46 1.77 1.39 1.77a2.69 2.69 0 0 0 1.31-.37v3a9.64 9.64 0 0 1-4.6 1.06zm-6.55-23.39c-1.08-2.13-2.86-4.13-5.79-4.13-3.63 0-5.79 3.18-5.79 11s2.16 11 5.79 11c2.93 0 4.71-2 5.79-4.13zm28.71 23.53c-8.34 0-14-5.68-14-16.81 0-10.48 6.1-16.53 13.44-16.53 6.95 0 11.58 4.58 11.58 13.28a22.74 22.74 0 0 1-.39 4.28h-16.34c0 6.12 2.17 10.1 8.42 10.1a10.28 10.28 0 0 0 6.79-2.8l2.09 4a15.71 15.71 0 0 1-11.59 4.48zm-.39-28.25c-2.7 0-4.48 2.29-5.25 7.9h9.58c.23-5.17-1.01-7.9-4.33-7.9z"/></svg>